<?xml version="1.0" standalone="no"?>
<!DOCTYPE svg PUBLIC "-//W3C//DTD SVG 20010904//EN"
 "http://www.w3.org/TR/2001/REC-SVG-20010904/DTD/svg10.dtd">
<svg version="1.0" xmlns="http://www.w3.org/2000/svg"
 width="235.000000pt" height="294.000000pt" viewBox="0 0 235.000000 294.000000"
 preserveAspectRatio="xMidYMid meet">

<g transform="translate(0.000000,294.000000) scale(0.100000,-0.100000)"
fill="#000000" stroke="none">
<path d="M486 2924 c-40 -7 -111 -34 -165 -61 -120 -59 -226 -161 -283 -269
l-38 -72 0 -253 0 -252 37 -66 c54 -99 178 -217 280 -269 115 -57 207 -76 346
-70 185 8 312 64 448 199 63 62 85 93 122 170 54 112 70 183 69 304 -1 107
-20 185 -67 280 -134 273 -441 420 -749 359z m257 -139 c229 -48 401 -248 415
-480 9 -154 -44 -291 -152 -399 -241 -241 -643 -198 -828 88 -54 84 -78 169
-78 275 0 152 50 271 156 376 127 126 308 178 487 140z"/>
<path d="M580 2670 c-19 -19 -20 -33 -20 -224 l0 -205 26 -20 c25 -20 39 -21
241 -21 235 0 265 6 277 56 5 20 2 35 -12 53 l-19 26 -187 3 -186 2 0 155 c0
142 -2 157 -20 175 -11 11 -33 20 -50 20 -17 0 -39 -9 -50 -20z"/>
<path d="M1386 2403 c7 -37 13 -85 14 -105 l0 -38 370 0 c357 0 371 -1 390
-20 20 -20 20 -33 20 -1004 l0 -985 -26 -20 c-26 -21 -34 -21 -701 -21 l-674
0 -24 25 -25 24 0 628 0 628 -105 1 -105 1 0 -651 0 -651 24 -50 c13 -29 44
-69 71 -93 85 -75 61 -73 861 -70 699 3 710 3 755 24 25 12 62 38 82 58 l37
37 0 1118 0 1119 -39 35 c-83 75 -59 72 -522 75 l-416 3 13 -68z"/>
<path d="M1040 1612 c-29 -23 -31 -73 -5 -102 18 -19 30 -20 434 -20 464 0
461 0 461 64 0 18 -6 41 -14 52 -14 18 -32 19 -434 22 -397 2 -420 2 -442 -16z"/>
<path d="M1042 1184 c-16 -11 -22 -25 -22 -54 0 -71 -9 -70 455 -70 464 0 455
-1 455 70 0 71 9 70 -455 70 -355 0 -414 -2 -433 -16z"/>
<path d="M1037 733 c-31 -36 -22 -93 18 -111 33 -15 801 -17 839 -2 40 15 51
77 19 113 -15 16 -49 17 -438 17 -389 0 -423 -1 -438 -17z"/>
</g>
</svg>
