<?xml version="1.0" standalone="no"?>
<!DOCTYPE svg PUBLIC "-//W3C//DTD SVG 20010904//EN"
 "http://www.w3.org/TR/2001/REC-SVG-20010904/DTD/svg10.dtd">
<svg version="1.0" xmlns="http://www.w3.org/2000/svg"
 width="512.000000pt" height="512.000000pt" viewBox="0 0 512.000000 512.000000"
 preserveAspectRatio="xMidYMid meet">

<g transform="translate(0.000000,512.000000) scale(0.100000,-0.100000)"
fill="#000000" stroke="none">
<path d="M2387 5105 c-348 -59 -643 -273 -793 -576 -104 -210 -114 -282 -114
-841 l0 -448 -207 0 c-144 0 -230 -5 -278 -15 -225 -47 -413 -235 -460 -460
-22 -104 -22 -2186 0 -2290 47 -225 235 -413 460 -460 105 -22 3025 -22 3130
0 225 47 413 235 460 460 12 59 15 238 15 1145 0 1193 2 1151 -66 1290 -51
103 -161 213 -264 264 -140 68 -96 66 -1302 66 l-1088 0 0 443 c0 349 3 457
15 512 39 188 177 362 355 448 209 102 409 102 619 0 78 -37 109 -59 177 -127
65 -66 90 -99 123 -168 61 -126 71 -186 71 -445 l0 -223 201 0 201 0 -4 268
c-5 249 -7 274 -32 367 -95 360 -368 645 -723 755 -155 48 -341 61 -496 35z
m1719 -2297 c21 -15 50 -44 64 -65 l25 -37 0 -1086 0 -1086 -25 -37 c-14 -21
-43 -50 -64 -65 l-39 -27 -1507 0 -1507 0 -39 27 c-21 15 -50 44 -64 65 l-25
37 -3 1064 c-1 705 1 1076 8 1102 12 46 80 116 124 129 18 6 646 9 1522 8
l1491 -2 39 -27z"/>
<path d="M2461 2244 c-153 -41 -271 -198 -271 -360 0 -95 68 -233 140 -284
l29 -20 3 -253 3 -254 27 -40 c41 -63 90 -88 168 -88 84 0 137 33 175 108 25
50 25 54 25 288 l0 238 29 20 c73 52 141 189 141 285 0 165 -118 320 -275 361
-72 18 -123 18 -194 -1z"/>
</g>
</svg>
